# xmcd CD database file
#
# Track frame offsets:
#	150
#	10645
#	24125
#	45525
#	66505
#	84042
#	99367
#	119447
#	134190
#	153517
#	172580
#	186852
#	209235
#	244690
#
# Disc length: 3553 seconds
#
# Revision: 0
# Processed by: cddbd v1.5PL3 Copyright (c) Steve Scherf et al.
# Submitted via: CDex 1.51
#
DISCID=b20ddf0e
DTITLE=BACKYARD BABIES - Diesel And Power
DYEAR=1994
DGENRE=Hard Rock
TTITLE0=Smell The Magic
TTITLE1=Bad To The Bone
TTITLE2=Strange Kind Of Attitude
TTITLE3=Diesel And Power
TTITLE4=Love
TTITLE5=Wild Dog
TTITLE6=Fly Like A Little...
TTITLE7=Electric Suzy
TTITLE8=Kickin' Up Dust
TTITLE9=Should I Be Damned
TTITLE10=Fill Up This Bad Machine
TTITLE11=Heaven In Hell
TTITLE12=Shame
TTITLE13=Lies
EXTD=YEAR: 1994
EXTT0=
EXTT1=
EXTT2=
EXTT3=
EXTT4=
EXTT5=
EXTT6=
EXTT7=
EXTT8=
EXTT9=
EXTT10=
EXTT11=
EXTT12=
EXTT13=
PLAYORDER=
